<svg xmlns="http://www.w3.org/2000/svg" class="icon icon-tabler icon-tabler-brand-bilibili" width="24" height="24" viewBox="0 0 24 24" stroke-width="2" stroke="currentColor" fill="none" stroke-linecap="round" stroke-linejoin="round">
  <path stroke="none" d="M0 0h24v24H0z"/>
  <path d="M3 5v14a2 2 0 0 0 2 2h14a2 2 0 0 0 2 -2V5a2 2 0 0 0 -2 -2H5a2 2 0 0 0 -2 2z"/>
  <path d="M8 10a2 2 0 0 1 2 -2h4a2 2 0 0 1 2 2v4a2 2 0 0 1 -2 2h-4a2 2 0 0 1 -2 -2v-4z"/>
  <path d="M10 12h4"/>
  <path d="M12 10v4"/>
</svg>